<?xml version="1.0" encoding="UTF-8"?>
<!DOCTYPE svg PUBLIC "-//W3C//DTD SVG 1.1//EN" "http://www.w3.org/Graphics/SVG/1.1/DTD/svg11.dtd">
<!-- Creator: CorelDRAW X8 -->
<svg xmlns="http://www.w3.org/2000/svg" xml:space="preserve" width="5.559in" height="1.499in" version="1.1" style="shape-rendering:geometricPrecision; text-rendering:geometricPrecision; image-rendering:optimizeQuality; fill-rule:evenodd; clip-rule:evenodd"
viewBox="0 0 5559 1499"
 xmlns:xlink="http://www.w3.org/1999/xlink">
 <defs>
  <style type="text/css">
   <![CDATA[
    .fil0 {fill:#41539A;fill-rule:nonzero}
   ]]>
  </style>
 </defs>
 <g id="Layer_x0020_1">
  <metadata id="CorelCorpID_0Corel-Layer"/>
  <g id="_1181157864672">
   <path class="fil0" d="M538 710l-341 0 0 -437 341 0c167,0 237,97 237,219 0,108 -46,218 -237,218zm476 540l-288 -386c149,-39 242,-195 242,-367 0,-232 -160,-396 -391,-396l-575 0 0 1149 195 0 0 -366 312 0c86,118 272,366 272,366l233 0z"/>
   <polygon class="fil0" points="5013,56 4465,1249 4669,1249 5013,514 5357,1249 5561,1249 5561,1249 "/>
   <path class="fil0" d="M1992 371c-29,14 -58,16 -67,-1 -8,-17 10,-40 38,-55 29,-14 60,-17 88,-9 -11,27 -31,50 -59,65zm-113 139c-36,-8 -63,-28 -58,-49 5,-21 38,-28 73,-20 35,8 64,28 84,55 -29,16 -64,22 -99,14zm-167 90c-42,-14 -72,-42 -64,-67 9,-25 50,-29 91,-15 42,14 75,42 95,77 -38,16 -81,19 -122,5zm-192 114c-48,-20 -81,-56 -69,-85 13,-29 61,-30 109,-9 49,20 85,56 106,100 -46,15 -98,15 -146,-6zm-103 -163c-25,51 -65,86 -96,71 -31,-15 -30,-68 -6,-120 25,-51 67,-89 116,-110 14,51 11,107 -14,159zm134 -144c24,-42 61,-71 104,-85 8,44 1,91 -23,132 -24,42 -60,68 -85,53 -25,-14 -21,-59 4,-100zm213 -73c28,-28 63,-44 99,-47 -2,37 -16,72 -43,100 -27,29 -61,42 -78,26 -17,-17 -5,-51 22,-79zm757 503c-7,-17 -129,-315 -129,-315l0 -75c88,-40 104,-109 103,-143 -4,-85 -57,-164 -186,-180 14,-28 -19,-68 -61,-85 -49,-19 -129,-29 -197,2 -2,-21 -35,-37 -70,-43 -16,-3 -34,-4 -51,-4 -75,0 -157,24 -193,66 -6,-12 -52,-18 -80,-15 -135,15 -250,127 -254,277 -27,-6 -72,20 -100,49 -85,89 -106,265 -23,355 24,-19 73,-12 119,14 55,30 93,78 112,132 -53,12 -110,6 -163,-21 -1,96 120,193 188,204l0 91c93,123 427,311 596,347l0 -217c308,82 290,-104 277,-129 -10,-18 -19,-27 -19,-49l0 -192c0,0 73,-14 96,-19 31,-7 43,-30 35,-50z"/>
   <path class="fil0" d="M4179 101l-71 0c-192,211 -557,614 -563,621 -6,-7 -361,-400 -561,-621l-74 0 0 1148 195 0 0 -738 442 486 436 -481 0 733 195 0 0 0 1 0 0 -1148z"/>
  </g>
 </g>
</svg>
